<?xml version="1.0" encoding="UTF-8" standalone="no"?>
<!-- Created with Inkscape (http://www.inkscape.org/) -->

<svg
   xmlns:dc="http://purl.org/dc/elements/1.1/"
   xmlns:cc="http://creativecommons.org/ns#"
   xmlns:rdf="http://www.w3.org/1999/02/22-rdf-syntax-ns#"
   xmlns:svg="http://www.w3.org/2000/svg"
   xmlns="http://www.w3.org/2000/svg"
   xmlns:sodipodi="http://sodipodi.sourceforge.net/DTD/sodipodi-0.dtd"
   xmlns:inkscape="http://www.inkscape.org/namespaces/inkscape"
   version="1.1"
   id="svg2"
   xml:space="preserve"
   width="139.83333"
   height="30"
   viewBox="0 0 139.83334 30"
   sodipodi:docname="logo.svg"
   inkscape:version="0.92.5 (2060ec1f9f, 2020-04-08)"><metadata
     id="metadata8"><rdf:RDF><cc:Work
         rdf:about=""><dc:format>image/svg+xml</dc:format><dc:type
           rdf:resource="http://purl.org/dc/dcmitype/StillImage" /><dc:title></dc:title></cc:Work></rdf:RDF></metadata><defs
     id="defs6" /><sodipodi:namedview
     pagecolor="#121119"
     bordercolor="#666666"
     borderopacity="1"
     objecttolerance="10"
     gridtolerance="10"
     guidetolerance="10"
     inkscape:pageopacity="0"
     inkscape:pageshadow="2"
     inkscape:window-width="1920"
     inkscape:window-height="975"
     id="namedview4"
     showgrid="false"
     fit-margin-top="0"
     fit-margin-left="0"
     fit-margin-right="0"
     fit-margin-bottom="0"
     inkscape:zoom="1"
     inkscape:cx="58.463645"
     inkscape:cy="94.557879"
     inkscape:window-x="0"
     inkscape:window-y="27"
     inkscape:window-maximized="0"
     inkscape:current-layer="g10" /><g
     id="g10"
     inkscape:groupmode="layer"
     inkscape:label="ink_ext_XXXXXX"
     transform="matrix(1.3333333,0,0,-1.3333333,-97.333331,112.66666)"><g
       id="g4591"
       transform="matrix(0.125,0,0,0.125,63.875,54.25)"><g
         id="g4568"><path
           inkscape:connector-curvature="0"
           id="path16"
           style="fill:#00ff99;fill-opacity:1;fill-rule:evenodd;stroke:none;stroke-width:0.1"
           d="M 93,78 H 73 V 226 H 93 V 78" /><path
           inkscape:connector-curvature="0"
           id="path18"
           style="fill:#9933ff;fill-opacity:1;fill-rule:evenodd;stroke:none;stroke-width:0.1"
           d="m 193,78 h 20 v 108 h -20 z" /><path
           inkscape:connector-curvature="0"
           id="path20"
           style="fill:#00ccff;fill-opacity:1;fill-rule:evenodd;stroke:none;stroke-width:0.1"
           d="M 213,62 H 73 V 82 H 213 V 62" /><path
           inkscape:connector-curvature="0"
           id="path22"
           style="fill:#fff35c;fill-opacity:1;fill-rule:evenodd;stroke:none;stroke-width:0.1"
           d="m 73,222 h 80 v 20 H 73 Z" /><path
           inkscape:connector-curvature="0"
           id="path24"
           style="fill:#ff6666;fill-opacity:1;fill-rule:evenodd;stroke:none;stroke-width:0.1"
           d="m 193,202 v 20 h -20 v 20 h -20 v -20.128 -0.03 -19.94 -0.03 V 182 H 173.022 192.974 213 v 20 h -20" /><path
           inkscape:connector-curvature="0"
           id="path26"
           style="fill:#9f983d;fill-opacity:1;fill-rule:nonzero;stroke:none;stroke-width:0.1"
           d="M 153,222 H 132.974 L 153,242 v -20" /><path
           inkscape:connector-curvature="0"
           id="path28"
           style="fill:#62259f;fill-opacity:1;fill-rule:nonzero;stroke:none;stroke-width:0.1"
           d="M 193,161.839 V 182 h 19.974 L 193,161.839" /></g><g
         id="g4575"><path
           inkscape:connector-curvature="0"
           id="path30"
           style="fill:#ffffff;fill-opacity:1;fill-rule:nonzero;stroke:none;stroke-width:0.1"
           d="m 373.41,180.203 c -10.183,9.583 -22.561,12.179 -31.944,12.179 -22.76,0 -37.534,-13.576 -37.534,-40.928 0,-17.968 9.174,-40.129 37.324,-40.129 7.388,0 18.744,1.397 26.744,7.187 V 136 h -35 v 31 h 68 v -61.665 c -8,-17.7678 -32.961,-27.3518 -59.914,-27.3518 -55.302,0 -76.176,36.9348 -76.176,73.4708 0,36.536 24.003,74.069 76.511,74.069 19.366,0 36.558,-3.993 54.925,-22.56 l -22.936,-22.76" /><path
           inkscape:connector-curvature="0"
           id="path32"
           style="fill:#ffffff;fill-opacity:1;fill-rule:nonzero;stroke:none;stroke-width:0.1"
           d="m 421,82 v 140 h 39 V 82 h -39" /><path
           inkscape:connector-curvature="0"
           id="path34"
           style="fill:#ffffff;fill-opacity:1;fill-rule:nonzero;stroke:none;stroke-width:0.1"
           d="m 524,153 h 28.271 c 10.982,0 16.571,8.117 16.571,17.301 0,9.183 -5.79,17.699 -16.571,17.699 H 524 Z m 0,-33 V 82 h -40 v 140 h 68.271 c 37.535,0 56.102,-23.548 56.102,-50.9 0,-28.55 -18.767,-51.1 -56.102,-51.1 H 524" /><path
           inkscape:connector-curvature="0"
           id="path36"
           style="fill:#ffffff;fill-opacity:1;fill-rule:nonzero;stroke:none;stroke-width:0.1"
           d="m 713,82 v 52 H 662 V 82 h -39 v 139 h 39 v -53 h 51 v 53 h 39 V 82 h -39" /><path
           inkscape:connector-curvature="0"
           id="path38"
           style="fill:#ffffff;fill-opacity:1;fill-rule:nonzero;stroke:none;stroke-width:0.1"
           d="M 837.355,174.085 867.501,222 H 912 v -2.266 L 857,137.478 V 82 h -40 v 55.478 l -53,82.455 V 222 h 44.405 l 28.95,-47.915" /></g></g></g></svg>